<svg width="42" height="41" viewBox="0 0 42 41" fill="none" xmlns="http://www.w3.org/2000/svg">
<g id="Frame 71">
<path id="Vector" d="M20.8134 18.6725H32.0982C32.2068 19.2791 32.2845 19.8709 32.2845 20.6648C32.2845 27.4827 27.708 32.3391 20.8124 32.3391C14.1968 32.3391 8.85822 27.0006 8.85822 20.3849C8.85822 13.7692 14.1968 8.43066 20.8124 8.43066C24.0341 8.43066 26.7427 9.61413 28.8288 11.5597L25.5752 14.6887C24.6876 13.833 23.1316 12.8368 20.8124 12.8368C16.7341 12.8368 13.4028 16.2149 13.4028 20.3859C13.4028 24.5569 16.7341 27.935 20.8124 27.935C25.5443 27.935 27.3185 24.542 27.5995 22.7827H20.8124V18.6734L20.8134 18.6725Z" fill="#A59982"/>
</g>
</svg>
