<svg width="42" height="41" viewBox="0 0 42 41" fill="none" xmlns="http://www.w3.org/2000/svg">
<g id="Frame 71">
<path id="Vector" d="M20.8136 18.6725H32.0984C32.207 19.2791 32.2847 19.8709 32.2847 20.6648C32.2847 27.4827 27.7082 32.3391 20.8126 32.3391C14.197 32.3391 8.8584 27.0006 8.8584 20.3849C8.8584 13.7692 14.197 8.43066 20.8126 8.43066C24.0343 8.43066 26.7429 9.61413 28.8289 11.5597L25.5754 14.6887C24.6878 13.833 23.1318 12.8368 20.8126 12.8368C16.7342 12.8368 13.403 16.2149 13.403 20.3859C13.403 24.5569 16.7342 27.935 20.8126 27.935C25.5445 27.935 27.3187 24.542 27.5996 22.7827H20.8126V18.6734L20.8136 18.6725Z" fill="black"/>
</g>
</svg>
