<svg width="41" height="41" viewBox="0 0 41 41" fill="none" xmlns="http://www.w3.org/2000/svg">
<g id="Frame 69">
<g id="Group 26">
<g id="Group">
<path id="Vector" d="M8.58398 14.4835C8.58398 12.9186 9.20564 11.4178 10.3122 10.3112C11.4188 9.20466 12.9196 8.58301 14.4845 8.58301H26.2854C27.8503 8.58301 29.3512 9.20466 30.4577 10.3112C31.5643 11.4178 32.1859 12.9186 32.1859 14.4835V26.2845C32.1859 27.8494 31.5643 29.3502 30.4577 30.4567C29.3512 31.5633 27.8503 32.1849 26.2854 32.1849H14.4845C12.9196 32.1849 11.4188 31.5633 10.3122 30.4567C9.20564 29.3502 8.58398 27.8494 8.58398 26.2845V14.4835Z" stroke="#A59982" stroke-width="2.14563" stroke-linecap="round" stroke-linejoin="round"/>
<path id="Vector_2" d="M27.0223 13.7461V13.7608M15.9589 20.3841C15.9589 21.5578 16.4252 22.6834 17.2551 23.5133C18.085 24.3433 19.2106 24.8095 20.3843 24.8095C21.558 24.8095 22.6836 24.3433 23.5135 23.5133C24.3434 22.6834 24.8097 21.5578 24.8097 20.3841C24.8097 19.2105 24.3434 18.0849 23.5135 17.2549C22.6836 16.425 21.558 15.9588 20.3843 15.9588C19.2106 15.9588 18.085 16.425 17.2551 17.2549C16.4252 18.0849 15.9589 19.2105 15.9589 20.3841Z" stroke="#A59982" stroke-width="2.14563" stroke-linecap="round" stroke-linejoin="round"/>
</g>
</g>
</g>
</svg>
