<svg width="33" height="27" viewBox="0 0 33 27" fill="none" xmlns="http://www.w3.org/2000/svg">
<g id="download (1) 1" clip-path="url(#clip0_7723_456)">
<path id="Vector" d="M9.15188 14.8344C9.15188 15.581 8.56541 16.1852 7.85288 16.1852C7.12694 16.1852 6.53958 15.582 6.53958 14.8344C6.53958 14.1015 7.12605 13.4983 7.85288 13.4983C8.56541 13.4983 9.15188 14.1015 9.15188 14.8344ZM25.2718 14.8206C25.2718 15.5673 24.6854 16.1714 23.9585 16.1714C23.2317 16.1714 22.6452 15.5682 22.6452 14.8206C22.6452 14.073 23.2317 13.4845 23.9585 13.4845C24.6854 13.4845 25.2718 14.0739 25.2718 14.8206ZM10.7441 14.8344C10.7441 13.3116 9.52916 12.061 8.04778 12.061C6.55299 12.061 5.35143 13.3107 5.35143 14.8344C5.35143 16.3719 6.55299 17.6077 8.04778 17.6077C9.52826 17.6077 10.7441 16.3719 10.7441 14.8344ZM26.8507 14.8206C26.8507 13.2978 25.6491 12.0472 24.1543 12.0472C22.6738 12.0472 21.458 13.2969 21.458 14.8206C21.458 16.3581 22.6729 17.594 24.1543 17.594C25.6491 17.594 26.8507 16.3581 26.8507 14.8206ZM11.9314 14.8344C11.9314 17.0468 10.1997 18.8427 8.04778 18.8427C5.89589 18.8427 4.15077 17.0468 4.15077 14.8344C4.15077 12.6357 5.89678 10.8398 8.04778 10.8398C10.1988 10.8398 11.9314 12.6357 11.9314 14.8344ZM28.0522 14.8206C28.0522 17.033 26.3062 18.8151 24.1552 18.8151C22.0176 18.8151 20.2716 17.0339 20.2716 14.8206C20.2716 12.6072 22.0176 10.826 24.1552 10.826C26.3062 10.826 28.0522 12.6072 28.0522 14.8206ZM14.5857 14.8629C14.5857 11.1994 11.6945 8.2246 8.13181 8.2246C4.58348 8.2246 1.69224 11.1984 1.69224 14.8629C1.69224 18.5273 4.58348 21.5012 8.13181 21.5012C11.6936 21.5012 14.5857 18.5273 14.5857 14.8629ZM23.9174 6.63009C21.6126 5.59559 19.0146 5.03558 16.1511 5.03558C13.2876 5.03558 10.4375 5.59559 8.14701 6.61629C12.5751 6.63101 16.1511 10.3092 16.1511 14.8638C16.1511 10.3957 19.6011 6.75883 23.9174 6.63009ZM30.6082 14.8629C30.6082 11.1994 27.7304 8.2246 24.1686 8.2246C20.6069 8.2246 17.7147 11.1984 17.7147 14.8629C17.7147 18.5273 20.606 21.5012 24.1686 21.5012C27.7313 21.5012 30.6082 18.5273 30.6082 14.8629ZM26.8927 6.73124H32.2424C31.4039 7.73723 30.7897 9.08714 30.6359 10.0214C31.5997 11.386 32.1727 13.0532 32.1727 14.8638C32.1727 19.4184 28.5824 23.0966 24.1686 23.0966C21.6547 23.0966 19.4187 21.9186 17.9525 20.0648C17.9525 20.0648 17.2963 20.8694 16.1502 22.6368C15.9544 22.2202 14.963 20.7692 14.3622 20.051C12.8951 21.9186 10.6467 23.0975 8.13181 23.0975C3.71807 23.0975 0.127716 19.4193 0.127716 14.8647C0.127716 13.0541 0.700779 11.3879 1.66452 10.0223C1.51075 9.08806 0.896567 7.73815 0.0579834 6.73216H5.15654C7.8949 4.84983 11.8759 3.67188 16.1502 3.67188C20.4245 3.67188 24.1543 4.84983 26.8927 6.73216V6.73124Z" fill="#A59982"/>
</g>
<defs>
<clipPath id="clip0_7723_456">
<rect width="32.1845" height="25.7476" fill="white" transform="translate(0.0579834 0.509766)"/>
</clipPath>
</defs>
</svg>
