<svg width="33" height="27" viewBox="0 0 33 27" fill="none" xmlns="http://www.w3.org/2000/svg">
<g id="download (1) 1" clip-path="url(#clip0_9841_5982)">
<path id="Vector" d="M9.152 14.8344C9.152 15.581 8.56553 16.1852 7.853 16.1852C7.12707 16.1852 6.5397 15.582 6.5397 14.8344C6.5397 14.1015 7.12617 13.4983 7.853 13.4983C8.56553 13.4983 9.152 14.1015 9.152 14.8344ZM25.2719 14.8206C25.2719 15.5673 24.6855 16.1714 23.9586 16.1714C23.2318 16.1714 22.6453 15.5682 22.6453 14.8206C22.6453 14.073 23.2318 13.4845 23.9586 13.4845C24.6855 13.4845 25.2719 14.0739 25.2719 14.8206ZM10.7442 14.8344C10.7442 13.3116 9.52928 12.061 8.0479 12.061C6.55311 12.061 5.35156 13.3107 5.35156 14.8344C5.35156 16.3719 6.55311 17.6077 8.0479 17.6077C9.52838 17.6077 10.7442 16.3719 10.7442 14.8344ZM26.8508 14.8206C26.8508 13.2978 25.6492 12.0472 24.1544 12.0472C22.6739 12.0472 21.4581 13.2969 21.4581 14.8206C21.4581 16.3581 22.6731 17.594 24.1544 17.594C25.6492 17.594 26.8508 16.3581 26.8508 14.8206ZM11.9315 14.8344C11.9315 17.0468 10.1998 18.8427 8.0479 18.8427C5.89601 18.8427 4.1509 17.0468 4.1509 14.8344C4.1509 12.6357 5.8969 10.8398 8.0479 10.8398C10.1989 10.8398 11.9315 12.6357 11.9315 14.8344ZM28.0523 14.8206C28.0523 17.033 26.3063 18.8151 24.1553 18.8151C22.0177 18.8151 20.2717 17.0339 20.2717 14.8206C20.2717 12.6072 22.0177 10.826 24.1553 10.826C26.3063 10.826 28.0523 12.6072 28.0523 14.8206ZM14.5858 14.8629C14.5858 11.1994 11.6946 8.2246 8.13194 8.2246C4.5836 8.2246 1.69236 11.1984 1.69236 14.8629C1.69236 18.5273 4.5836 21.5012 8.13194 21.5012C11.6937 21.5012 14.5858 18.5273 14.5858 14.8629ZM23.9175 6.63009C21.6128 5.59559 19.0148 5.03558 16.1512 5.03558C13.2877 5.03558 10.4376 5.59559 8.14713 6.61629C12.5752 6.63101 16.1512 10.3092 16.1512 14.8638C16.1512 10.3957 19.6012 6.75883 23.9175 6.63009ZM30.6083 14.8629C30.6083 11.1994 27.7305 8.2246 24.1687 8.2246C20.607 8.2246 17.7149 11.1984 17.7149 14.8629C17.7149 18.5273 20.6061 21.5012 24.1687 21.5012C27.7314 21.5012 30.6083 18.5273 30.6083 14.8629ZM26.8928 6.73124H32.2426C31.404 7.73723 30.7898 9.08714 30.636 10.0214C31.5998 11.386 32.1728 13.0532 32.1728 14.8638C32.1728 19.4184 28.5825 23.0966 24.1687 23.0966C21.6548 23.0966 19.4188 21.9186 17.9527 20.0648C17.9527 20.0648 17.2965 20.8694 16.1503 22.6368C15.9545 22.2202 14.9631 20.7692 14.3623 20.051C12.8952 21.9186 10.6468 23.0975 8.13194 23.0975C3.71819 23.0975 0.127838 19.4193 0.127838 14.8647C0.127838 13.0541 0.700901 11.3879 1.66465 10.0223C1.51088 9.08806 0.89669 7.73815 0.0581055 6.73216H5.15666C7.89502 4.84983 11.8761 3.67188 16.1503 3.67188C20.4246 3.67188 24.1544 4.84983 26.8928 6.73216V6.73124Z" fill="black"/>
</g>
<defs>
<clipPath id="clip0_9841_5982">
<rect width="32.1845" height="25.7476" fill="white" transform="translate(0.0581055 0.509766)"/>
</clipPath>
</defs>
</svg>
